<svg xmlns="http://www.w3.org/2000/svg" viewBox="0 0 488.33 174.4"><title>Recurso 7</title><g id="Capa_2" data-name="Capa 2"><g id="Capa_1-2" data-name="Capa 1"><path d="M16.06,128.2Q6,125.61,0,121.67L8.19,104a50.69,50.69,0,0,0,13.69,5.9,57.09,57.09,0,0,0,15.74,2.29q15.57,0,15.58-7.72,0-3.62-4.24-5.19a63.63,63.63,0,0,0-13.07-2.68A123.61,123.61,0,0,1,18.73,93,26.48,26.48,0,0,1,7,85.78Q2,80.59,2,71A23.25,23.25,0,0,1,6.69,56.74q4.63-6.21,13.54-9.68a58,58,0,0,1,21-3.46,82.48,82.48,0,0,1,17.86,2A49.72,49.72,0,0,1,73.82,51L65.64,68.47a48.89,48.89,0,0,0-24.4-6.3q-7.87,0-11.8,2.21T25.5,70c0,2.63,1.42,4.46,4.25,5.51a74.81,74.81,0,0,0,13.54,3,147.29,147.29,0,0,1,17,3.7A25.51,25.51,0,0,1,71.78,89.4q4.88,5.2,4.88,14.49a22.39,22.39,0,0,1-4.72,14q-4.72,6.15-13.78,9.53a61.54,61.54,0,0,1-21.48,3.38A82.19,82.19,0,0,1,16.06,128.2Z" style="fill:#fa6441"/><path d="M108,125.21a41.58,41.58,0,0,1-16.6-15.5,42.69,42.69,0,0,1-6-22.51,42.69,42.69,0,0,1,6-22.51A41.65,41.65,0,0,1,108,49.19a50.77,50.77,0,0,1,24-5.59,50.3,50.3,0,0,1,23.93,5.59,41.7,41.7,0,0,1,16.52,15.5,42.69,42.69,0,0,1,6,22.51,42.69,42.69,0,0,1-6,22.51,41.63,41.63,0,0,1-16.52,15.5A50.3,50.3,0,0,1,132,130.8,50.77,50.77,0,0,1,108,125.21Zm39.52-20.93q6-6.37,6.05-17.08t-6.05-17.08A20.47,20.47,0,0,0,132,63.75a20.68,20.68,0,0,0-15.58,6.37q-6.15,6.38-6.14,17.08t6.14,17.08A20.68,20.68,0,0,0,132,110.65,20.47,20.47,0,0,0,147.48,104.28Z" style="fill:#fa6441"/><path d="M218.21,34h19.18V53.19H218.21v64.53H193.93V53.19H174.75V34h19.18V31.12q0-14.31,8.49-22.72T226.3,0a44.48,44.48,0,0,1,10.35,1.17,25.15,25.15,0,0,1,8.17,3.34L237.39,22.1a13.53,13.53,0,0,0-8.76-3c-7.37,0-10.42,4.05-10.42,12.14Z" style="fill:#7828fa"/><path d="M193.93,117.73V130.8H218.2V117.73Z" style="fill:#7828fa;opacity:0.5"/><path d="M311.06,39.89q10.53,9.36,10.54,28.25v49.58h-23v-11.8q-6.94,11.81-25.82,11.8a40.12,40.12,0,0,1-16.92-3.3,25.39,25.39,0,0,1-10.94-9.13,23.78,23.78,0,0,1-3.78-13.23q0-11.81,8.9-18.57t27.46-6.77H297q0-8-4.88-12.35T277.52,50a43,43,0,0,0-13.3,2.12,35.28,35.28,0,0,0-11.1,5.75l-8.81-17.16a53.25,53.25,0,0,1,16.61-7.55,74.12,74.12,0,0,1,19.91-2.68Q300.51,30.52,311.06,39.89ZM290.12,98.28A16,16,0,0,0,297,89.7V81.05H280.21q-15.13,0-15.12,9.91a8.84,8.84,0,0,0,3.7,7.48q3.69,2.76,10.16,2.75A21.32,21.32,0,0,0,290.12,98.28Z" style="fill:#7828fa"/><path d="M321.59,117.73V130.8h-23V119Q291.7,130.8,272.8,130.8a39.9,39.9,0,0,1-16.92-3.32,25.12,25.12,0,0,1-10.95-9.11,23.79,23.79,0,0,1-3.75-13.22V92.07a24.18,24.18,0,0,0,.8,6.46,21.83,21.83,0,0,0,2.89,6.62.23.23,0,0,0,.06.12,25.24,25.24,0,0,0,10.95,9.14,39.9,39.9,0,0,0,16.92,3.32q18.87,0,25.81-11.81v11.81Z" style="fill:#7828fa;opacity:0.5"/><path d="M488.33,112.43a24.84,24.84,0,0,1-8.8,4,44.57,44.57,0,0,1-11,1.32q-14.93,0-23.1-7.62t-8.17-22.42V53.19H424.2V34h13.08V0h24.28V34h26.77V53.19H461.56V87.37c0,3.53.9,6.26,2.72,8.17s4.38,2.88,7.7,2.88a15.59,15.59,0,0,0,9.81-3.11Z" style="fill:#7828fa"/><path d="M488.33,112.44v13.07a25.55,25.55,0,0,1-8.8,4,45.63,45.63,0,0,1-11,1.32c-9.93,0-17.65-2.55-23.1-7.63s-8.15-12.55-8.15-22.42V87.67c0,9.88,2.71,17.32,8.15,22.43s13.17,7.63,23.1,7.63a45.2,45.2,0,0,0,10.74-1.26l.25-.06a29.94,29.94,0,0,0,4.71-1.64A22.79,22.79,0,0,0,488.33,112.44Z" style="fill:#7828fa;opacity:0.5"/><path d="M353.22,112.13a41.85,41.85,0,0,1-16.84-15.5,42.28,42.28,0,0,1-6.06-22.51,41.52,41.52,0,0,1,22.9-38,52,52,0,0,1,24.32-5.59q13.38,0,23.38,5.59a33.22,33.22,0,0,1,14.56,16L396.43,62.32q-6.62-11.66-19-11.65A21.58,21.58,0,0,0,361.49,57q-6.3,6.3-6.3,17.16t6.3,17.16a21.55,21.55,0,0,0,15.9,6.29q12.58,0,19-11.64l19.05,10.38a33.8,33.8,0,0,1-14.56,15.74q-10,5.67-23.38,5.67A52,52,0,0,1,353.22,112.13Z" style="fill:#7828fa"/><path d="M415.48,96.32v13.07a34,34,0,0,1-14.55,15.75c-6.68,3.75-14.46,5.66-23.38,5.66a52.24,52.24,0,0,1-24.34-5.6,41.55,41.55,0,0,1-22.88-38v-13c0,1.1,0,2.21.12,3.29s.16,2.12.31,3.17v.06a21,21,0,0,0,.37,2.15c.15.86.34,1.69.52,2.52.09.37.19.74.31,1.11v0c.21.77.46,1.54.71,2.31.34.92.67,1.85,1.07,2.74.25.61.56,1.26.86,1.84a4.65,4.65,0,0,0,.37.74c.43.86.9,1.69,1.42,2.52a41.81,41.81,0,0,0,16.82,15.51c.9.46,1.82.89,2.74,1.32a50.56,50.56,0,0,0,5.76,2.09,37.74,37.74,0,0,0,4.52,1.11c1.54.31,3.1.55,4.71.74,2.15.21,4.33.34,6.61.34,1.11,0,2.22,0,3.29-.09a52.88,52.88,0,0,0,6.28-.71,49.77,49.77,0,0,0,5.84-1.42c.71-.21,1.38-.46,2.06-.7a44.17,44.17,0,0,0,5.91-2.74c.52-.31,1.05-.62,1.54-1a13.33,13.33,0,0,0,1.29-.83l.49-.37a32.78,32.78,0,0,0,7.45-7.22,13.12,13.12,0,0,0,1-1.51,13.89,13.89,0,0,0,.8-1.2c.34-.53.62-1,.92-1.6S415.17,97,415.48,96.32Z" style="fill:#7828fa;opacity:0.5"/><path d="M196.45,173.87a6.83,6.83,0,0,1-2.52-1.39l.81-1.7a6.79,6.79,0,0,0,2.24,1.28,8.33,8.33,0,0,0,2.8.49,5.05,5.05,0,0,0,2.84-.65,2,2,0,0,0,.94-1.71,1.72,1.72,0,0,0-.52-1.28,3.58,3.58,0,0,0-1.26-.75c-.51-.17-1.21-.37-2.13-.59a20.06,20.06,0,0,1-2.78-.83,4.65,4.65,0,0,1-1.82-1.28,3.41,3.41,0,0,1-.75-2.32,4,4,0,0,1,.65-2.21,4.51,4.51,0,0,1,2-1.57,8,8,0,0,1,3.25-.59,10.39,10.39,0,0,1,2.66.35,7.06,7.06,0,0,1,2.25,1l-.72,1.74a8,8,0,0,0-2.05-.92,7.71,7.71,0,0,0-2.14-.32,4.71,4.71,0,0,0-2.78.68,2.06,2.06,0,0,0-.93,1.74,1.7,1.7,0,0,0,.52,1.28,3.63,3.63,0,0,0,1.3.76,17.79,17.79,0,0,0,2.11.58,23,23,0,0,1,2.77.83,4.66,4.66,0,0,1,1.8,1.27,3.34,3.34,0,0,1,.75,2.29,3.85,3.85,0,0,1-.65,2.19,4.38,4.38,0,0,1-2,1.57,8.11,8.11,0,0,1-3.27.58A10.65,10.65,0,0,1,196.45,173.87Z" style="fill:#7828fa"/><path d="M210.43,173.59a5.5,5.5,0,0,1-2.15-2.1,6.41,6.41,0,0,1,0-6.09,5.5,5.5,0,0,1,2.15-2.1,6.38,6.38,0,0,1,3.1-.75,6.31,6.31,0,0,1,3.09.75,5.54,5.54,0,0,1,2.14,2.1,6.41,6.41,0,0,1,0,6.09,5.54,5.54,0,0,1-2.14,2.1,6.21,6.21,0,0,1-3.09.77A6.28,6.28,0,0,1,210.43,173.59Zm5.1-1.58a3.55,3.55,0,0,0,1.38-1.44,4.36,4.36,0,0,0,.51-2.13,4.29,4.29,0,0,0-.51-2.12,3.46,3.46,0,0,0-1.38-1.43,4.18,4.18,0,0,0-4,0,3.55,3.55,0,0,0-1.39,1.43,4.19,4.19,0,0,0-.52,2.12,4.25,4.25,0,0,0,.52,2.13,3.64,3.64,0,0,0,1.39,1.44,4.11,4.11,0,0,0,4,0Z" style="fill:#7828fa"/><path d="M224.79,161.66v1h3.36v1.72h-3.32v9.85h-2.09v-9.85h-2v-1.72h2v-1a3.66,3.66,0,0,1,1-2.72,3.81,3.81,0,0,1,2.82-1,4.66,4.66,0,0,1,1.31.18,3,3,0,0,1,1,.5l-.64,1.59a2.62,2.62,0,0,0-1.61-.54C225.42,159.63,224.79,160.3,224.79,161.66Z" style="fill:#7828fa"/><path d="M236.64,173.55a3.12,3.12,0,0,1-1.13.6,4.7,4.7,0,0,1-1.4.21,3.68,3.68,0,0,1-2.7-.94,3.59,3.59,0,0,1-1-2.68v-6.36h-2v-1.72h2v-2.53h2.1v2.53h3.32v1.72h-3.32v6.27a2.06,2.06,0,0,0,.47,1.44,1.76,1.76,0,0,0,1.34.5A2.5,2.5,0,0,0,236,172Z" style="fill:#7828fa"/><path d="M256.46,162.66l-4.32,11.57h-2l-3.34-8.78-3.38,8.78h-2l-4.3-11.57h2l3.36,9.21,3.49-9.21h1.77l3.43,9.25,3.44-9.25Z" style="fill:#7828fa"/><path d="M266.1,163.73a4.56,4.56,0,0,1,1.27,3.51v7h-2V172.7a3.28,3.28,0,0,1-1.5,1.23,5.55,5.55,0,0,1-2.3.43,4.81,4.81,0,0,1-3.11-.94,3.22,3.22,0,0,1-.05-4.92,5.46,5.46,0,0,1,3.53-.93h3.32v-.41a2.66,2.66,0,0,0-.79-2.08,3.3,3.3,0,0,0-2.31-.72,6.33,6.33,0,0,0-2,.34,5.28,5.28,0,0,0-1.66.91l-.87-1.57a6.3,6.3,0,0,1,2.14-1.11,9.11,9.11,0,0,1,2.64-.38A5.22,5.22,0,0,1,266.1,163.73ZM264,172.21a3.07,3.07,0,0,0,1.27-1.52v-1.61h-3.23c-1.78,0-2.66.59-2.66,1.79a1.6,1.6,0,0,0,.67,1.37,3.07,3.07,0,0,0,1.88.5A3.84,3.84,0,0,0,264,172.21Z" style="fill:#7828fa"/><path d="M274.88,163.07a6,6,0,0,1,2.6-.52v2l-.48,0a3.52,3.52,0,0,0-2.67,1,4,4,0,0,0-1,2.9v5.76h-2.09V162.66h2v1.94A3.56,3.56,0,0,1,274.88,163.07Z" style="fill:#7828fa"/><path d="M290.36,169.14H281a3.65,3.65,0,0,0,1.34,2.46,4.4,4.4,0,0,0,2.85.93,4.3,4.3,0,0,0,3.34-1.4l1.16,1.35a5.14,5.14,0,0,1-2,1.4,6.73,6.73,0,0,1-2.6.48,6.88,6.88,0,0,1-3.26-.75,5.49,5.49,0,0,1-2.19-2.11,6,6,0,0,1-.77-3.06,6.13,6.13,0,0,1,.75-3,5.45,5.45,0,0,1,2.07-2.11,5.94,5.94,0,0,1,3-.75,5.82,5.82,0,0,1,3,.75,5.42,5.42,0,0,1,2,2.11,6.4,6.4,0,0,1,.73,3.1A5.55,5.55,0,0,1,290.36,169.14Zm-8.2-3.9a3.69,3.69,0,0,0-1.19,2.4h7.42a3.64,3.64,0,0,0-1.19-2.39,3.9,3.9,0,0,0-5,0Z" style="fill:#7828fa"/><path d="M310.09,158v16.2h-2v-1.84a4.58,4.58,0,0,1-1.77,1.47,5.54,5.54,0,0,1-2.36.5,6.13,6.13,0,0,1-3-.74,5.29,5.29,0,0,1-2.08-2.09,6.21,6.21,0,0,1-.76-3.09,6.13,6.13,0,0,1,.76-3.07,5.33,5.33,0,0,1,2.08-2.08,6.13,6.13,0,0,1,3-.74,5.55,5.55,0,0,1,2.29.47,4.48,4.48,0,0,1,1.75,1.39V158Zm-4,14a3.53,3.53,0,0,0,1.4-1.44,4.35,4.35,0,0,0,.5-2.13,4.29,4.29,0,0,0-.5-2.12,3.45,3.45,0,0,0-1.4-1.43,3.89,3.89,0,0,0-2-.51,3.94,3.94,0,0,0-2,.51,3.64,3.64,0,0,0-1.4,1.43,4.29,4.29,0,0,0-.51,2.12,4.36,4.36,0,0,0,.51,2.13,3.73,3.73,0,0,0,1.4,1.44,4,4,0,0,0,2,.52A3.9,3.9,0,0,0,306.11,172Z" style="fill:#7828fa"/><path d="M324.47,169.14h-9.39a3.66,3.66,0,0,0,1.35,2.46,4.36,4.36,0,0,0,2.85.93,4.31,4.31,0,0,0,3.34-1.4l1.15,1.35a5,5,0,0,1-1.95,1.4,7.38,7.38,0,0,1-5.86-.27,5.46,5.46,0,0,1-2.2-2.11,6.48,6.48,0,0,1,0-6.09,5.55,5.55,0,0,1,2.08-2.11,5.92,5.92,0,0,1,3-.75,5.78,5.78,0,0,1,2.95.75,5.29,5.29,0,0,1,2,2.11,6.4,6.4,0,0,1,.73,3.1A5.55,5.55,0,0,1,324.47,169.14Zm-8.2-3.9a3.74,3.74,0,0,0-1.19,2.4h7.43a3.74,3.74,0,0,0-1.19-2.39,3.91,3.91,0,0,0-5.05,0Z" style="fill:#7828fa"/><path d="M335.77,160.85v5.32h7.67v1.88h-7.67v6.18h-2.18V159h10.79v1.9Z" style="fill:#7828fa"/><path d="M354.62,163.73a4.56,4.56,0,0,1,1.28,3.51v7h-2V172.7a3.3,3.3,0,0,1-1.49,1.23,5.62,5.62,0,0,1-2.3.43,4.77,4.77,0,0,1-3.11-.94,3.22,3.22,0,0,1-.06-4.92,5.48,5.48,0,0,1,3.54-.93h3.31v-.41a2.69,2.69,0,0,0-.78-2.08,3.34,3.34,0,0,0-2.32-.72,6.22,6.22,0,0,0-2,.34,5.17,5.17,0,0,0-1.66.91l-.88-1.57a6.3,6.3,0,0,1,2.14-1.11,9.11,9.11,0,0,1,2.64-.38A5.22,5.22,0,0,1,354.62,163.73Zm-2.08,8.48a3,3,0,0,0,1.26-1.52v-1.61h-3.23c-1.77,0-2.66.59-2.66,1.79a1.61,1.61,0,0,0,.68,1.37,3,3,0,0,0,1.87.5A3.88,3.88,0,0,0,352.54,172.21Z" style="fill:#7828fa"/><path d="M361.74,173.59a5.57,5.57,0,0,1-2.18-2.1,6.33,6.33,0,0,1,0-6.09,5.57,5.57,0,0,1,2.18-2.1,6.49,6.49,0,0,1,3.15-.75,6.12,6.12,0,0,1,2.81.63,4.56,4.56,0,0,1,1.9,1.84L368,166a3.55,3.55,0,0,0-1.35-1.24,3.84,3.84,0,0,0-1.79-.42,4.06,4.06,0,0,0-2,.51,3.49,3.49,0,0,0-1.42,1.43,4.29,4.29,0,0,0-.51,2.12,4.35,4.35,0,0,0,.51,2.15,3.49,3.49,0,0,0,1.42,1.43,4.06,4.06,0,0,0,2,.51,3.84,3.84,0,0,0,1.79-.42,3.55,3.55,0,0,0,1.35-1.24l1.59,1a4.5,4.5,0,0,1-1.9,1.84,6,6,0,0,1-2.81.65A6.39,6.39,0,0,1,361.74,173.59Z" style="fill:#7828fa"/><path d="M379,173.55a3.25,3.25,0,0,1-1.14.6,4.64,4.64,0,0,1-1.39.21,3.69,3.69,0,0,1-2.71-.94,3.59,3.59,0,0,1-1-2.68v-6.36h-2v-1.72h2v-2.53h2.09v2.53h3.32v1.72h-3.32v6.27a2.06,2.06,0,0,0,.47,1.44,1.78,1.78,0,0,0,1.35.5,2.47,2.47,0,0,0,1.63-.55Z" style="fill:#7828fa"/><path d="M392.28,162.66v11.57h-2v-1.75a4.28,4.28,0,0,1-1.67,1.39,5.33,5.33,0,0,1-2.26.49,5.06,5.06,0,0,1-3.65-1.28,5,5,0,0,1-1.33-3.76v-6.66h2.1v6.42a3.63,3.63,0,0,0,.8,2.54,3,3,0,0,0,2.32.86,3.46,3.46,0,0,0,2.62-1,4,4,0,0,0,1-2.84v-6Z" style="fill:#7828fa"/><path d="M399.9,163.07a6,6,0,0,1,2.6-.52v2l-.48,0a3.56,3.56,0,0,0-2.68,1,4,4,0,0,0-1,2.9v5.76h-2.09V162.66h2v1.94A3.59,3.59,0,0,1,399.9,163.07Z" style="fill:#7828fa"/><path d="M412.94,163.73a4.56,4.56,0,0,1,1.28,3.51v7h-2V172.7a3.3,3.3,0,0,1-1.49,1.23,5.64,5.64,0,0,1-2.31.43,4.81,4.81,0,0,1-3.11-.94,3,3,0,0,1-1.17-2.47,3.05,3.05,0,0,1,1.12-2.45,5.46,5.46,0,0,1,3.53-.93h3.32v-.41a2.69,2.69,0,0,0-.78-2.08,3.34,3.34,0,0,0-2.32-.72,6.33,6.33,0,0,0-2,.34,5.39,5.39,0,0,0-1.66.91l-.87-1.57a6.3,6.3,0,0,1,2.14-1.11,9.11,9.11,0,0,1,2.64-.38A5.22,5.22,0,0,1,412.94,163.73Zm-2.09,8.48a3,3,0,0,0,1.27-1.52v-1.61h-3.23c-1.78,0-2.66.59-2.66,1.79a1.6,1.6,0,0,0,.67,1.37,3.09,3.09,0,0,0,1.88.5A3.84,3.84,0,0,0,410.85,172.21Z" style="fill:#7828fa"/><path d="M420.05,173.59a5.62,5.62,0,0,1-2.17-2.1,6.33,6.33,0,0,1,0-6.09,5.62,5.62,0,0,1,2.17-2.1,6.56,6.56,0,0,1,3.16-.75,6,6,0,0,1,2.8.63,4.58,4.58,0,0,1,1.91,1.84l-1.59,1A3.63,3.63,0,0,0,425,164.8a3.84,3.84,0,0,0-1.79-.42,4.06,4.06,0,0,0-2,.51,3.49,3.49,0,0,0-1.42,1.43,4.19,4.19,0,0,0-.52,2.12,4.25,4.25,0,0,0,.52,2.15,3.49,3.49,0,0,0,1.42,1.43,4.06,4.06,0,0,0,2,.51,3.84,3.84,0,0,0,1.79-.42,3.63,3.63,0,0,0,1.35-1.24l1.59,1a4.52,4.52,0,0,1-1.91,1.84,5.93,5.93,0,0,1-2.8.65A6.46,6.46,0,0,1,420.05,173.59Z" style="fill:#7828fa"/><path d="M430.66,160a1.28,1.28,0,0,1-.4-1,1.31,1.31,0,0,1,.4-1,1.38,1.38,0,0,1,1-.4,1.4,1.4,0,0,1,1,.38,1.25,1.25,0,0,1,.41.95,1.35,1.35,0,0,1-.41,1,1.37,1.37,0,0,1-1,.4A1.41,1.41,0,0,1,430.66,160Zm0,2.62h2.09v11.57h-2.09Z" style="fill:#7828fa"/><path d="M438.57,173.59a5.56,5.56,0,0,1-2.15-2.1,6.41,6.41,0,0,1,0-6.09,5.56,5.56,0,0,1,2.15-2.1,6.38,6.38,0,0,1,3.1-.75,6.31,6.31,0,0,1,3.09.75,5.54,5.54,0,0,1,2.14,2.1,6.33,6.33,0,0,1,0,6.09,5.54,5.54,0,0,1-2.14,2.1,6.21,6.21,0,0,1-3.09.77A6.28,6.28,0,0,1,438.57,173.59Zm5.1-1.58a3.64,3.64,0,0,0,1.39-1.44,4.47,4.47,0,0,0,.5-2.13,4.4,4.4,0,0,0-.5-2.12,3.55,3.55,0,0,0-1.39-1.43,4.16,4.16,0,0,0-4,0,3.57,3.57,0,0,0-1.4,1.43,4.29,4.29,0,0,0-.51,2.12,4.36,4.36,0,0,0,.51,2.13,3.66,3.66,0,0,0,1.4,1.44,4.09,4.09,0,0,0,4,0ZM443,158.14h2.66L442,161h-2Z" style="fill:#7828fa"/><path d="M460.26,163.83a5,5,0,0,1,1.3,3.74v6.66h-2.1v-6.42a3.54,3.54,0,0,0-.81-2.53,3,3,0,0,0-2.31-.85,3.62,3.62,0,0,0-2.69,1,3.9,3.9,0,0,0-1,2.85v6h-2.09V162.66h2v1.75A4,4,0,0,1,454.3,163a6,6,0,0,1,2.46-.48A4.8,4.8,0,0,1,460.26,163.83Z" style="fill:#7828fa"/></g></g></svg>